# xmcd
# 
# Track frame offsets:
#     150
#     12482
#     23260
#     34717
#     50830
#     69842
#     96092
#     122352
#     143482
#     144622
#     155300
#     168740
#     175700
#     185682
#     193675
#     206010
#     223385
#     235125
# 
# Disc length: 3542
# 
# Revision: 3
# Processed by: cddbd v1.5.2PL0 Copyright (c) Steve Scherf et al.
# Submitted via: fre:ac v1.0.17
# 
DISCID=fa0dd412
DTITLE=Various Artist - I Love You Budapest
DYEAR=1993
DGENRE=Blues
TTITLE0=Hobo Blues Band - Hello, jól vagyok
TTITLE1=Hobo - Hangyadal
TTITLE2=Hobo - I Love You Budapest I.
TTITLE3=Hobo - Kaland az égen
TTITLE4=Hobo - Szabad Európa szalon
TTITLE5=Hobo - A kései apaság gyönyörűséges illúziója
TTITLE6=Hobo - Az ártatlanság kísértése
TTITLE7=Hobo - Hajnali magány és remény
TTITLE8=Hobo - Intermezzo
TTITLE9=Hobo - I Love You Budapest II.
TTITLE10=Hobo - Bölcselkedés a bölcső fölött
TTITLE11=Hobo - I Love You Budapest III.
TTITLE12=Hobo - Fiúk iskolája
TTITLE13=Hobo - I Love You Budapest IV.
TTITLE14=Hobo - A bosszú angyala
TTITLE15=Hobo - A legnagyobb fiú legkisebb fia
TTITLE16=Hobo - Álom
TTITLE17=Hobo - A városlakó üzenete
EXTD=
EXTT0=
EXTT1=
EXTT2=
EXTT3=
EXTT4=
EXTT5=
EXTT6=
EXTT7=
EXTT8=
EXTT9=
EXTT10=
EXTT11=
EXTT12=
EXTT13=
EXTT14=
EXTT15=
EXTT16=
EXTT17=
PLAYORDER=
